<?xml version="1.0" encoding="UTF-8" standalone="no"?>
<svg
   xmlns:dc="http://purl.org/dc/elements/1.1/"
   xmlns:cc="http://creativecommons.org/ns#"
   xmlns:rdf="http://www.w3.org/1999/02/22-rdf-syntax-ns#"
   xmlns:svg="http://www.w3.org/2000/svg"
   xmlns="http://www.w3.org/2000/svg"
   xmlns:sodipodi="http://sodipodi.sourceforge.net/DTD/sodipodi-0.dtd"
   xmlns:inkscape="http://www.inkscape.org/namespaces/inkscape"
   width="512"
   height="512"
   id="svg2"
   version="1.1"
   inkscape:version="0.48.4 r9939"
   sodipodi:docname="lixeira.svg">
  <metadata
     id="metadata10">
    <rdf:RDF>
      <cc:Work
         rdf:about="">
        <dc:format>image/svg+xml</dc:format>
        <dc:type
           rdf:resource="http://purl.org/dc/dcmitype/StillImage" />
      </cc:Work>
    </rdf:RDF>
  </metadata>
  <defs
     id="defs8" />
  <sodipodi:namedview
     pagecolor="#ffffff"
     bordercolor="#666666"
     borderopacity="1"
     objecttolerance="10"
     gridtolerance="10"
     guidetolerance="10"
     inkscape:pageopacity="0"
     inkscape:pageshadow="2"
     inkscape:window-width="947"
     inkscape:window-height="602"
     id="namedview6"
     showgrid="false"
     inkscape:zoom="0.52678571"
     inkscape:cx="224"
     inkscape:cy="205.34506"
     inkscape:window-x="0"
     inkscape:window-y="159"
     inkscape:window-maximized="0"
     inkscape:current-layer="svg2" />
  <g
     id="g12"
     transform="matrix(1,0,0,-1,32.5,447.5)">
    <title
       id="title14">Layer 1</title>
    <path
       d="m 0,364 v 28 c 0,13.3 10.7,24 24,24 h 112 l 9.4,18.7 c 4,8.2 12.3,13.3 21.4,13.3 h 114.3 c 9.1,0 17.4,-5.1 21.5,-13.3 L 312,416 h 112 c 13.3,0 24,-10.7 24,-24 v -28 c 0,-6.6 -5.4,-12 -12,-12 H 12 C 5.4,352 0,357.4 0,364 z M 416,308 V -16 c 0,-26.5 -21.5,-48 -48,-48 H 80 c -26.5,0 -48,21.5 -48,48 v 324 c 0,6.6 5.4,12 12,12 h 360 c 6.6,0 12,-5.4 12,-12 z M 144,240 c 0,8.8 -7.2,16 -16,16 -8.8,0 -16,-7.2 -16,-16 V 16 c 0,-8.8 7.2,-16 16,-16 8.8,0 16,7.2 16,16 v 224 z m 96,0 c 0,8.8 -7.2,16 -16,16 -8.8,0 -16,-7.2 -16,-16 V 16 c 0,-8.8 7.2,-16 16,-16 8.8,0 16,7.2 16,16 v 224 z m 96,0 c 0,8.8 -7.2,16 -16,16 -8.8,0 -16,-7.2 -16,-16 V 16 c 0,-8.8 7.2,-16 16,-16 8.8,0 16,7.2 16,16 v 224 z"
       id="svg_2"
       inkscape:connector-curvature="0"
       style="fill:#000000;stroke:#000000;stroke-width:1px" />
  </g>
</svg>
